<?xml version="1.0" encoding="utf-8"?>
<!-- Generator: Adobe Illustrator 20.1.0, SVG Export Plug-In . SVG Version: 6.00 Build 0)  -->
<svg version="1.1" id="Layer_1" xmlns="http://www.w3.org/2000/svg" xmlns:xlink="http://www.w3.org/1999/xlink" x="0px" y="0px"
	 viewBox="0 0 29 20" style="enable-background:new 0 0 29 20;" xml:space="preserve">
<style>
	.st0{fill:#A7A7A7;}
</style>
<path class="st0" d="M18.9,16.9c0,1.7,1.4,3.1,3.1,3.1h3.9c1.7,0,3.1-1.4,3.1-3.1s-1.4-3.1-3.1-3.1h-1V6.2h1c1.7,0,3.1-1.4,3.1-3.1
	S27.6,0,25.9,0H22c-1.7,0-3.1,1.4-3.1,3.1s1.4,3.1,3.1,3.1h1v2.9h-7.9v-1c0-0.5-0.4-0.9-0.9-0.9h-5c-0.5,0-0.9,0.4-0.9,0.9v1h-2V6.2
	H7c1.7,0,3.1-1.4,3.1-3.1S8.7,0,7,0H3.1C1.4,0,0,1.4,0,3.1s1.4,3.1,3.1,3.1h0.7v7.6H3.1c-1.7,0-3.1,1.4-3.1,3.1S1.4,20,3.1,20H7
	c1.7,0,3.1-1.4,3.1-3.1S8.7,13.8,7,13.8H6.3v-2.9h2V12c0,0.5,0.4,0.9,0.9,0.9h5c0.5,0,0.9-0.4,0.9-0.9v-1.1H23v2.9h-1
	C20.3,13.8,18.9,15.2,18.9,16.9z M22,4.3c-0.7,0-1.2-0.6-1.2-1.2c0-0.7,0.6-1.2,1.2-1.2h3.9c0.7,0,1.2,0.6,1.2,1.2
	c0,0.7-0.6,1.2-1.2,1.2H22z M3.1,4.3c-0.7,0-1.2-0.6-1.2-1.2c0-0.7,0.6-1.2,1.2-1.2H7c0.7,0,1.2,0.6,1.2,1.2c0,0.7-0.6,1.2-1.2,1.2
	H3.1z M7,15.7c0.7,0,1.2,0.6,1.2,1.2S7.6,18.2,7,18.2H3.1c-0.7,0-1.2-0.6-1.2-1.2s0.6-1.2,1.2-1.2H7z M10.1,11.1V9h3.2v2.1H10.1z
	 M25.9,15.7c0.7,0,1.2,0.6,1.2,1.2s-0.6,1.2-1.2,1.2H22c-0.7,0-1.2-0.6-1.2-1.2s0.6-1.2,1.2-1.2H25.9z"/>
</svg>
