<svg xmlns="http://www.w3.org/2000/svg" xmlns:xlink="http://www.w3.org/1999/xlink" version="1.1" id="Layer_1" x="0px" y="0px" viewBox="0 0 28 17.4" style="enable-background:new 0 0 28 17.4;" xml:space="preserve">
<style>
	.st0{fill:#000033;}
</style>
<g>
	<g>
		<path class="st0" d="M16.7,13.2c0-0.1,0-0.2-0.1-0.3L10,0.4C9.8,0.1,9.4-0.1,9,0C8.6,0.2,8.3,0.6,8.4,1L11,14.8    c0,0.1,0.1,0.2,0.1,0.3c0,0.1,0.1,0.2,0.1,0.4c0.4,1.2,1.5,2,2.8,2c0.3,0,0.7-0.1,1-0.2c0.8-0.3,1.4-0.8,1.7-1.5    c0.3-0.7,0.4-1.5,0.1-2.2C16.8,13.4,16.7,13.3,16.7,13.2L16.7,13.2z M14,0.9c-0.5,0-0.9,0.4-0.9,0.8c0,0.5,0.4,0.8,0.9,0.8    c6.8,0,12.3,5.4,12.3,12.1c0,0.5,0.4,0.8,0.9,0.8c0.5,0,0.9-0.4,0.9-0.8C28,7.1,21.7,0.9,14,0.9L14,0.9z M5.2,4    C1.9,6.6,0,10.5,0,14.7c0,0.5,0.4,0.8,0.9,0.8c0.5,0,0.9-0.4,0.9-0.8c0-3.7,1.7-7.1,4.6-9.4C6.6,5,6.7,4.5,6.4,4.1    C6.1,3.8,5.6,3.7,5.2,4L5.2,4z" fill="#000000"/>
	</g>
</g>
</svg>