<?xml version="1.0" encoding="utf-8"?>
<!-- Generator: Adobe Illustrator 20.1.0, SVG Export Plug-In . SVG Version: 6.00 Build 0)  -->
<svg version="1.1" id="Layer_1" xmlns="http://www.w3.org/2000/svg" xmlns:xlink="http://www.w3.org/1999/xlink" x="0px" y="0px"
	 viewBox="0 0 28 19" style="enable-background:new 0 0 28 19;" xml:space="preserve">
<style>
	.st0{fill:#A7A7A7;}
</style>
<g>
	<path class="st0" d="M20.1,10.7h4.8c0.4,0,0.6,0.3,0.6,0.6v6.4c0,0.7,0.5,1.2,1.2,1.2s1.2-0.5,1.2-1.2V1.2C28,0.5,27.5,0,26.8,0
		s-1.2,0.5-1.2,1.2v6.4c0,0.4-0.3,0.6-0.6,0.6h-4.8c-0.4,0-0.6-0.3-0.6-0.6V1.2c0-0.7-0.5-1.2-1.2-1.2S17,0.5,17,1.2v6.4
		c0,0.4-0.3,0.6-0.6,0.6h-4.8C11.2,8.3,11,8,11,7.7V1.2C11,0.5,10.4,0,9.7,0C9.1,0,8.5,0.5,8.5,1.2v6.4c0,0.4-0.3,0.6-0.6,0.6H3.1
		C2.7,8.3,2.4,8,2.4,7.7V1.2C2.4,0.5,1.9,0,1.2,0S0,0.5,0,1.2v8.3c0,0.7,0.5,1.2,1.2,1.2h6.7c0.4,0,0.6,0.3,0.6,0.6v6.4
		c0,0.7,0.5,1.2,1.2,1.2c0.7,0,1.2-0.5,1.2-1.2v-6.4c0-0.4,0.3-0.6,0.6-0.6h4.8c0.4,0,0.6,0.3,0.6,0.6v6.4c0,0.7,0.5,1.2,1.2,1.2
		c0.7,0,1.2-0.5,1.2-1.2v-6.4C19.5,11,19.8,10.7,20.1,10.7L20.1,10.7z"/>
	<path d="M20.1,10.7"/>
</g>
</svg>
