<svg xmlns="http://www.w3.org/2000/svg" width="47.39" height="54.721" viewBox="0 0 47.39 54.721"><g transform="translate(-1516 -540.923)"><g transform="translate(1528 556)"><path d="M12,21a8.25,8.25,0,1,1,5.833-2.416A8.259,8.259,0,0,1,12,21ZM12,6a6.75,6.75,0,1,0,6.75,6.75A6.758,6.758,0,0,0,12,6Zm1.942,9.749h0L11.25,13.057V8.249h1.5v4.185L15,14.692l-1.057,1.057Zm-9.88-9h0L3,5.694,5.686,3,6.748,4.062,4.063,6.753Zm15.873-.006h0L17.249,4.055,18.31,3,21,5.688,19.936,6.746Z" fill="#ffffff"></path></g></g></svg>