<svg xmlns="http://www.w3.org/2000/svg" width="47.39" height="54.721" viewBox="0 0 47.39 54.721"><g transform="translate(-556.5 -290.923)"><g transform="translate(571.5 308.996)"><path d="M12,21a8.25,8.25,0,1,1,5.834-2.416A8.26,8.26,0,0,1,12,21ZM12,6a6.75,6.75,0,1,0,6.75,6.749A6.757,6.757,0,0,0,12,6ZM9.878,15.933h0l-1.059-1.06,2.121-2.121L8.818,10.629l1.06-1.061L12,11.689l2.121-2.121,1.061,1.061L13.061,12.75l2.121,2.121-1.06,1.059L12,13.81,9.878,15.932ZM4.062,6.753h0L3,5.694,5.686,3,6.748,4.062,4.063,6.753Zm15.873-.006h0L17.249,4.055,18.31,3,21,5.688,19.936,6.746Z" transform="translate(-3 -2.996)" fill="#ffffff"></path></g></g></svg>